<svg width="20" height="27" viewBox="0 0 20 27" fill="none" xmlns="http://www.w3.org/2000/svg">
<path d="M18.3489 9.003C18.127 6.18642 15.716 5.20136 12.656 4.87937L12.724 0.978855L10.3492 0.937809L10.283 4.73552C9.65953 4.72456 9.02131 4.72575 8.38723 4.72734L8.45431 0.90449L6.08138 0.863002L6.01244 4.76239C5.49823 4.76391 4.99326 4.76465 4.50104 4.75638L4.50094 4.74428L1.22634 4.68601L1.1827 7.22175C1.1827 7.22175 2.93655 7.21893 2.90684 7.25071C3.86852 7.26778 4.1724 7.8314 4.2544 8.31491L4.17705 12.7584C4.2434 12.7599 4.32992 12.7642 4.42771 12.7793L4.17754 12.7751L4.06765 19.0002C4.02016 19.3021 3.83384 19.7816 3.16193 19.771C3.19183 19.7984 1.43606 19.7404 1.43606 19.7404L0.914984 22.5682L4.00533 22.6219C4.58028 22.6326 5.14585 22.6522 5.70054 22.6656L5.63284 26.6112L8.00449 26.653L8.07319 22.7496C8.7235 22.7746 9.3536 22.7908 9.96885 22.8009L9.9 26.6861L12.2742 26.7273L12.3437 22.7894C16.3392 22.6301 19.1511 21.6731 19.5623 17.9318C19.8951 14.9185 18.4994 13.5468 16.243 12.9625C17.6314 12.2843 18.5136 11.0643 18.3483 9.00315L18.3489 9.003ZM14.8794 17.3803C14.8286 20.3286 9.78737 19.9056 8.17749 19.8786L8.26932 14.6518C9.87886 14.6803 14.932 14.3057 14.88 17.3802L14.8794 17.3803ZM13.9032 9.98694C13.8557 12.6691 9.65129 12.2826 8.31037 12.2595L8.39325 7.519C9.73416 7.54214 13.9524 7.18927 13.9032 9.98694Z" fill="white"/>
</svg>
