<svg width="210" height="48" viewBox="0 0 210 48" fill="none" xmlns="http://www.w3.org/2000/svg">
<rect width="210" height="48" rx="18" fill="url(#paint0_linear_2:2877)"/>
<path d="M25.44 27.32V19.24H26.672C29.36 19.24 30.48 20.728 30.48 23.192V23.32C30.48 25.848 29.248 27.32 26.688 27.32H25.44ZM23.312 29H26.752C30.768 29 32.704 26.632 32.704 23.304V23.16C32.704 19.832 30.768 17.56 26.784 17.56H23.312V29ZM34.6219 29H36.5579V20.632H34.6219V29ZM35.5659 19.256C36.2059 19.256 36.7179 18.776 36.7179 18.152C36.7179 17.512 36.2059 17.032 35.5659 17.032C34.9259 17.032 34.4139 17.512 34.4139 18.152C34.4139 18.776 34.9259 19.256 35.5659 19.256ZM41.7816 29.16C43.9256 29.16 45.1256 28.184 45.1256 26.488C45.1256 24.712 43.9576 24.232 41.9896 23.928C40.6616 23.704 40.2616 23.464 40.2616 22.856C40.2616 22.264 40.7576 21.864 41.5896 21.864C42.4856 21.864 42.9176 22.216 43.0776 22.984H44.8696C44.6616 21.096 43.3016 20.456 41.5896 20.456C40.0216 20.456 38.4536 21.288 38.4536 22.968C38.4536 24.536 39.2696 25.16 41.4776 25.512C42.7096 25.72 43.2696 25.976 43.2696 26.664C43.2696 27.368 42.8056 27.736 41.7656 27.736C40.6296 27.736 40.1976 27.24 40.1016 26.392H38.2776C38.3576 28.168 39.6216 29.16 41.7816 29.16ZM50.4879 29.16C52.7599 29.16 54.2159 27.8 54.3599 25.88H52.5839C52.4719 27.064 51.5919 27.672 50.5679 27.672C49.1439 27.672 48.2479 26.712 48.2479 24.888V24.76C48.2479 23.032 49.1919 22.008 50.5199 22.008C51.5439 22.008 52.2799 22.472 52.4399 23.592H54.3119C54.0879 21.288 52.3439 20.456 50.4879 20.456C48.1519 20.456 46.2639 22.136 46.2639 24.792V24.92C46.2639 27.592 48.0879 29.16 50.4879 29.16ZM59.771 27.656C58.299 27.656 57.451 26.584 57.451 24.872V24.744C57.451 23.016 58.331 21.976 59.771 21.976C61.211 21.976 62.075 23.032 62.075 24.76V24.872C62.075 26.584 61.211 27.656 59.771 27.656ZM59.755 29.16C62.219 29.16 64.059 27.464 64.059 24.856V24.728C64.059 22.168 62.219 20.456 59.771 20.456C57.307 20.456 55.467 22.184 55.467 24.776V24.904C55.467 27.448 57.291 29.16 59.755 29.16ZM67.6878 29H69.9438L72.9678 20.632H71.0638L68.9038 27.016L66.7118 20.632H64.6318L67.6878 29ZM77.7695 29.16C79.9135 29.16 81.3375 28.2 81.6095 26.44H79.7375C79.5935 27.256 78.9855 27.72 77.8175 27.72C76.3775 27.72 75.5775 26.824 75.5135 25.24H81.6415V24.68C81.6415 21.688 79.7695 20.456 77.6895 20.456C75.3055 20.456 73.5295 22.184 73.5295 24.776V24.904C73.5295 27.544 75.3055 29.16 77.7695 29.16ZM75.5455 23.944C75.7375 22.648 76.5215 21.864 77.6895 21.864C78.8895 21.864 79.6255 22.504 79.7215 23.944H75.5455ZM83.3708 29H85.3068V24.648C85.3068 22.872 86.3307 22.328 88.0268 22.312V20.504C86.6188 20.52 85.8348 21.144 85.3068 22.2V20.632H83.3708V29ZM93.7026 29H95.6226V20.36L99.0946 29H99.7826L103.191 20.36V29H105.319V17.56H102.503L99.5586 25.368L96.5506 17.56H93.7026V29ZM109.891 29.16C111.171 29.16 111.907 28.696 112.451 27.976V29H114.355V23.512C114.355 21.224 112.883 20.456 111.011 20.456C109.139 20.456 107.587 21.272 107.427 23.224H109.299C109.395 22.392 109.891 21.912 110.899 21.912C112.035 21.912 112.419 22.472 112.419 23.592V24.024H111.379C108.979 24.024 107.091 24.728 107.091 26.68C107.091 28.424 108.355 29.16 109.891 29.16ZM110.355 27.768C109.395 27.768 109.011 27.304 109.011 26.6C109.011 25.576 109.955 25.24 111.427 25.24H112.419V26.072C112.419 27.144 111.539 27.768 110.355 27.768ZM116.574 29H118.51V24.648C118.51 22.872 119.534 22.328 121.23 22.312V20.504C119.822 20.52 119.038 21.144 118.51 22.2V20.632H116.574V29ZM122.933 29H124.869V24.888L128.005 29H130.245L126.725 24.472L129.973 20.632H127.861L124.869 24.312V16.76H122.933V29ZM134.848 29.16C136.992 29.16 138.416 28.2 138.688 26.44H136.816C136.672 27.256 136.064 27.72 134.896 27.72C133.456 27.72 132.656 26.824 132.592 25.24H138.72V24.68C138.72 21.688 136.848 20.456 134.768 20.456C132.384 20.456 130.608 22.184 130.608 24.776V24.904C130.608 27.544 132.384 29.16 134.848 29.16ZM132.624 23.944C132.816 22.648 133.6 21.864 134.768 21.864C135.968 21.864 136.704 22.504 136.8 23.944H132.624ZM143.297 29.144C143.889 29.144 144.305 29.048 144.609 28.936V27.4C144.337 27.512 144.049 27.56 143.665 27.56C143.057 27.56 142.705 27.224 142.705 26.488V22.088H144.545V20.632H142.705V18.792H140.769V20.632H139.649V22.088H140.769V26.664C140.769 28.248 141.633 29.144 143.297 29.144ZM146.355 31.864H148.291V27.688C148.739 28.504 149.699 29.16 151.027 29.16C153.187 29.16 154.739 27.528 154.739 24.84V24.712C154.739 22.008 153.123 20.456 151.027 20.456C149.795 20.456 148.755 21.176 148.291 21.976V20.632H146.355V31.864ZM150.547 27.624C149.139 27.624 148.227 26.744 148.227 24.872V24.744C148.227 22.888 149.187 21.976 150.531 21.976C151.795 21.976 152.755 22.888 152.755 24.744V24.872C152.755 26.664 151.971 27.624 150.547 27.624ZM156.528 29H158.464V16.76H156.528V29ZM163.016 29.16C164.296 29.16 165.032 28.696 165.576 27.976V29H167.48V23.512C167.48 21.224 166.008 20.456 164.136 20.456C162.264 20.456 160.712 21.272 160.552 23.224H162.424C162.52 22.392 163.016 21.912 164.024 21.912C165.16 21.912 165.544 22.472 165.544 23.592V24.024H164.504C162.104 24.024 160.216 24.728 160.216 26.68C160.216 28.424 161.48 29.16 163.016 29.16ZM163.48 27.768C162.52 27.768 162.136 27.304 162.136 26.6C162.136 25.576 163.08 25.24 164.552 25.24H165.544V26.072C165.544 27.144 164.664 27.768 163.48 27.768ZM173.363 29.16C175.635 29.16 177.091 27.8 177.235 25.88H175.459C175.347 27.064 174.467 27.672 173.443 27.672C172.019 27.672 171.123 26.712 171.123 24.888V24.76C171.123 23.032 172.067 22.008 173.395 22.008C174.419 22.008 175.155 22.472 175.315 23.592H177.187C176.963 21.288 175.219 20.456 173.363 20.456C171.027 20.456 169.139 22.136 169.139 24.792V24.92C169.139 27.592 170.963 29.16 173.363 29.16ZM182.582 29.16C184.726 29.16 186.15 28.2 186.422 26.44H184.55C184.406 27.256 183.798 27.72 182.63 27.72C181.19 27.72 180.39 26.824 180.326 25.24H186.454V24.68C186.454 21.688 184.582 20.456 182.502 20.456C180.118 20.456 178.342 22.184 178.342 24.776V24.904C178.342 27.544 180.118 29.16 182.582 29.16ZM180.358 23.944C180.55 22.648 181.334 21.864 182.502 21.864C183.702 21.864 184.438 22.504 184.534 23.944H180.358Z" fill="white"/>
<defs>
<linearGradient id="paint0_linear_2:2877" x1="105" y1="0" x2="105" y2="48" gradientUnits="userSpaceOnUse">
<stop stop-color="#FF9E00"/>
<stop offset="1" stop-color="#FF6D00"/>
</linearGradient>
</defs>
</svg>
