<svg width="182" height="48" viewBox="0 0 182 48" fill="none" xmlns="http://www.w3.org/2000/svg">
<rect width="182" height="48" rx="18" fill="url(#paint0_linear_2:2656)"/>
<path d="M27.464 29.144C29.816 29.144 31.224 27.896 31.224 25.304V17.56H28.616V25.272C28.616 26.584 27.976 27.08 27 27.08C26.328 27.08 25.944 26.952 25.56 26.808V28.792C25.96 29 26.472 29.144 27.464 29.144ZM37.1624 27.416C35.8504 27.416 35.1144 26.456 35.1144 24.856V24.728C35.1144 23.128 35.8824 22.2 37.1624 22.2C38.4584 22.2 39.2104 23.16 39.2104 24.76V24.872C39.2104 26.456 38.4584 27.416 37.1624 27.416ZM37.1464 29.176C39.6584 29.176 41.5624 27.496 41.5624 24.856V24.728C41.5624 22.12 39.6744 20.44 37.1624 20.44C34.6504 20.44 32.7464 22.152 32.7464 24.776V24.904C32.7464 27.512 34.6504 29.176 37.1464 29.176ZM43.1818 29H45.4858V20.632H43.1818V29ZM44.3178 19.496C45.0698 19.496 45.6458 18.952 45.6458 18.232C45.6458 17.512 45.0698 16.968 44.3178 16.968C43.5818 16.968 43.0058 17.512 43.0058 18.232C43.0058 18.952 43.5818 19.496 44.3178 19.496ZM47.6178 29H49.9378V24.168C49.9378 22.936 50.6898 22.328 51.6818 22.328C52.7058 22.328 53.1538 22.872 53.1538 24.008V29H55.4738V23.672C55.4738 21.432 54.3058 20.44 52.6578 20.44C51.2658 20.44 50.3538 21.128 49.9378 21.96V20.632H47.6178V29ZM63.8084 26.984V19.576H64.8324C67.2484 19.576 68.2564 20.84 68.2564 23.192V23.32C68.2564 25.688 67.1684 26.984 64.8644 26.984H63.8084ZM61.2164 29H64.9444C68.9604 29 70.9604 26.712 70.9604 23.288V23.16C70.9604 19.736 68.9764 17.56 64.9604 17.56H61.2164V29ZM72.6818 29H74.9858V20.632H72.6818V29ZM73.8178 19.496C74.5698 19.496 75.1458 18.952 75.1458 18.232C75.1458 17.512 74.5698 16.968 73.8178 16.968C73.0818 16.968 72.5058 17.512 72.5058 18.232C72.5058 18.952 73.0818 19.496 73.8178 19.496ZM80.1578 29.176C82.3658 29.176 83.6778 28.232 83.6778 26.424C83.6778 24.632 82.5258 24.104 80.4298 23.8C79.2138 23.624 78.8138 23.416 78.8138 22.888C78.8138 22.376 79.2458 22.024 79.9978 22.024C80.7977 22.024 81.1818 22.344 81.3098 23.032H83.4378C83.2298 21.112 81.8378 20.44 79.9818 20.44C78.2698 20.44 76.6698 21.304 76.6698 23.048C76.6698 24.68 77.5338 25.32 79.7578 25.656C80.9578 25.832 81.4538 26.072 81.4538 26.648C81.4538 27.224 81.0378 27.56 80.1418 27.56C79.1338 27.56 78.7658 27.128 78.6698 26.376H76.5098C76.5898 28.184 77.9018 29.176 80.1578 29.176ZM88.941 29.176C91.373 29.176 92.813 27.8 92.941 25.816H90.845C90.733 26.888 89.981 27.432 89.053 27.432C87.757 27.432 87.005 26.568 87.005 24.888V24.76C87.005 23.16 87.805 22.264 89.005 22.264C89.949 22.264 90.541 22.712 90.701 23.688H92.893C92.685 21.288 90.893 20.44 88.957 20.44C86.573 20.44 84.637 22.088 84.637 24.792V24.92C84.637 27.656 86.493 29.176 88.941 29.176ZM98.303 27.416C96.991 27.416 96.255 26.456 96.255 24.856V24.728C96.255 23.128 97.023 22.2 98.303 22.2C99.599 22.2 100.351 23.16 100.351 24.76V24.872C100.351 26.456 99.599 27.416 98.303 27.416ZM98.287 29.176C100.799 29.176 102.703 27.496 102.703 24.856V24.728C102.703 22.12 100.815 20.44 98.303 20.44C95.791 20.44 93.887 22.152 93.887 24.776V24.904C93.887 27.512 95.791 29.176 98.287 29.176ZM104.258 29H106.578V24.808C106.578 23.208 107.57 22.648 109.282 22.664V20.504C107.922 20.52 107.106 21.112 106.578 22.232V20.632H104.258V29ZM113.785 29.176C115.017 29.176 116.041 28.456 116.473 27.608V29H118.777V16.84H116.473V21.88C116.009 21.032 115.177 20.44 113.833 20.44C111.737 20.44 110.153 22.056 110.153 24.808V24.936C110.153 27.72 111.753 29.176 113.785 29.176ZM114.473 27.368C113.321 27.368 112.521 26.552 112.521 24.888V24.76C112.521 23.096 113.241 22.216 114.537 22.216C115.801 22.216 116.537 23.064 116.537 24.728V24.856C116.537 26.552 115.689 27.368 114.473 27.368Z" fill="white"/>
<path d="M139.656 12L138.875 12.1007C138.875 12.1007 135.371 12.5108 132.812 14.7117H132.782L132.75 14.7438C132.176 15.3093 131.926 16.0043 131.531 17.0207C131.065 18.2435 130.669 19.4952 130.344 20.769C129.602 23.6424 129 27.1231 129 30.3071V30.5748L129.125 30.8425C130.051 32.5828 131.695 33.6913 133.219 34.457C134.742 35.2228 136.059 35.6287 136.969 35.6619L137.563 35.6951L137.875 35.1264L138.969 33.0509C140.129 33.3315 141.465 33.5199 143 33.5199C144.535 33.5199 145.871 33.3315 147.031 33.0509L148.125 35.1264L148.438 35.6951L149.031 35.6619C149.941 35.6287 151.258 35.2228 152.781 34.457C154.305 33.6913 155.949 32.5828 156.875 30.8425L157 30.5748V30.3071C157 27.1231 156.398 23.6424 155.656 20.769C155.331 19.4952 154.935 18.2435 154.469 17.0207C154.074 16.0033 153.824 15.3093 153.25 14.7449L153.219 14.7106H153.187C150.63 12.5108 147.125 12.1007 147.125 12.1007L146.344 12L146.062 12.77C146.062 12.77 145.773 13.5518 145.594 14.4439C144.734 14.3169 143.868 14.2497 143 14.2426C142.465 14.2426 141.54 14.2801 140.406 14.4439C140.226 13.5518 139.937 12.77 139.937 12.77L139.656 12ZM138.281 14.4439C138.324 14.5939 138.367 14.7235 138.406 14.8456C137.113 15.1883 135.734 15.7109 134.469 16.5516L135.531 18.3594C138.125 16.6351 141.851 16.3845 143 16.3845C144.148 16.3845 147.875 16.6351 150.469 18.3594L151.531 16.5516C150.266 15.7109 148.887 15.1883 147.594 14.8445C147.633 14.7235 147.676 14.5939 147.719 14.4429C148.652 14.6442 150.434 15.1047 151.906 16.3513C151.898 16.3556 152.281 16.9746 152.625 17.8571C152.977 18.7653 153.367 19.9744 153.719 21.3377C154.395 23.952 154.926 27.1359 154.969 29.9386C154.339 30.9678 153.172 31.8964 151.937 32.5164C151.162 32.9084 150.343 33.1893 149.5 33.3518L149 32.449C149.297 32.3312 149.59 32.2027 149.844 32.0806C151.383 31.3566 152.219 30.5748 152.219 30.5748L150.906 28.9683C150.906 28.9683 150.344 29.521 149.031 30.14C147.72 30.759 145.715 31.378 143 31.378C140.285 31.378 138.281 30.759 136.969 30.14C135.656 29.521 135.094 28.9683 135.094 28.9683L133.781 30.5748C133.781 30.5748 134.617 31.3566 136.156 32.0806C136.41 32.2027 136.703 32.3322 137 32.449L136.5 33.3529C135.656 33.1898 134.837 32.9082 134.062 32.5154C132.828 31.8964 131.66 30.9678 131.032 29.9386C131.074 27.1359 131.605 23.952 132.282 21.3377C132.581 20.1552 132.946 18.9929 133.375 17.8571C133.719 16.9746 134.102 16.3556 134.094 16.3513C135.566 15.1047 137.348 14.6442 138.281 14.4439ZM139.5 21.7393C138.727 21.7393 138.043 22.2116 137.625 22.8103C137.207 23.409 137 24.1447 137 24.9522C137 25.7597 137.207 26.4955 137.625 27.0942C138.043 27.6928 138.727 28.1651 139.5 28.1651C140.273 28.1651 140.957 27.6928 141.375 27.0942C141.793 26.4955 142 25.7597 142 24.9522C142 24.1447 141.793 23.409 141.375 22.8103C140.957 22.2116 140.273 21.7393 139.5 21.7393ZM146.5 21.7393C145.727 21.7393 145.043 22.2116 144.625 22.8103C144.207 23.409 144 24.1447 144 24.9522C144 25.7597 144.207 26.4955 144.625 27.0942C145.043 27.6928 145.727 28.1651 146.5 28.1651C147.273 28.1651 147.957 27.6928 148.375 27.0942C148.793 26.4955 149 25.7597 149 24.9522C149 24.1447 148.793 23.409 148.375 22.8103C147.957 22.2116 147.273 21.7393 146.5 21.7393ZM139.5 23.8813C139.555 23.8813 139.625 23.9027 139.75 24.0826C139.875 24.2615 140 24.5753 140 24.9522C140 25.3292 139.875 25.643 139.75 25.8229C139.625 26.0018 139.555 26.0232 139.5 26.0232C139.445 26.0232 139.375 26.0018 139.25 25.8219C139.085 25.5667 138.997 25.2628 139 24.9522C139 24.5753 139.125 24.2615 139.25 24.0815C139.375 23.9027 139.445 23.8813 139.5 23.8813ZM146.5 23.8813C146.555 23.8813 146.625 23.9027 146.75 24.0826C146.875 24.2615 147 24.5753 147 24.9522C147 25.3292 146.875 25.643 146.75 25.8229C146.625 26.0018 146.555 26.0232 146.5 26.0232C146.445 26.0232 146.375 26.0018 146.25 25.8219C146.085 25.5667 145.997 25.2628 146 24.9522C146 24.5753 146.125 24.2615 146.25 24.0815C146.375 23.9027 146.445 23.8813 146.5 23.8813Z" fill="white"/>
<defs>
<linearGradient id="paint0_linear_2:2656" x1="91" y1="0" x2="91" y2="48" gradientUnits="userSpaceOnUse">
<stop stop-color="#FF9E00"/>
<stop offset="1" stop-color="#FF6D00"/>
</linearGradient>
</defs>
</svg>
